<svg xmlns="http://www.w3.org/2000/svg" xmlns:xlink="http://www.w3.org/1999/xlink" viewBox="100, 60, 200,200"><path d="M101.388 82.569 C 101.014 83.020,100.992 100.139,101.365 100.511 C 101.455 100.600,111.992 100.758,124.782 100.863 C 149.845 101.067,150.441 101.092,153.809 102.074 C 165.848 105.581,172.164 110.938,176.892 121.652 C 177.991 124.141,179.231 126.912,179.942 128.468 C 180.264 129.174,180.911 130.617,181.380 131.676 C 181.848 132.735,182.426 134.034,182.664 134.563 C 182.903 135.092,183.387 136.175,183.741 136.969 C 185.244 140.340,186.156 142.359,186.855 143.865 C 187.621 145.515,188.639 147.773,190.073 151.002 C 190.523 152.017,191.095 153.280,191.342 153.809 C 191.590 154.338,192.520 156.327,193.410 158.228 C 194.300 160.128,195.028 161.744,195.028 161.818 C 195.028 161.954,196.479 165.093,199.184 170.810 C 201.300 175.282,200.165 174.920,211.217 174.646 L 220.690 174.411 220.690 173.462 C 220.690 172.940,220.484 172.130,220.233 171.661 C 219.982 171.193,219.490 170.160,219.139 169.366 C 218.789 168.573,218.112 167.057,217.635 165.998 C 217.159 164.940,216.481 163.424,216.128 162.630 C 213.864 157.526,212.325 154.165,211.525 152.580 C 211.273 152.081,211.067 151.540,211.067 151.378 C 211.067 151.217,210.634 150.146,210.104 148.998 C 209.575 147.851,208.691 145.938,208.140 144.747 C 207.589 143.557,206.570 141.283,205.875 139.695 C 204.600 136.781,203.689 134.723,202.895 132.959 C 202.657 132.430,202.073 131.131,201.599 130.072 C 201.125 129.014,200.471 127.570,200.145 126.864 C 199.820 126.159,198.108 122.334,196.341 118.364 C 194.574 114.395,192.692 110.353,192.158 109.383 C 191.624 108.412,191.091 107.402,190.973 107.137 C 186.011 95.991,169.578 85.409,152.847 82.585 C 148.980 81.932,101.928 81.918,101.388 82.569 M266.727 82.475 C 262.977 83.021,256.595 84.805,253.288 86.232 C 249.291 87.956,242.181 91.961,241.219 93.030 C 241.131 93.128,240.192 93.884,239.134 94.709 C 233.685 98.957,230.148 104.101,225.185 114.996 C 224.622 116.231,223.831 117.963,223.427 118.845 C 223.022 119.727,222.330 121.243,221.887 122.213 C 221.445 123.184,220.545 125.132,219.886 126.544 C 215.282 136.413,215.295 134.932,219.725 144.507 C 221.677 148.727,222.535 150.602,223.246 152.205 C 223.638 153.087,224.408 154.729,224.959 155.854 L 225.959 157.899 226.782 156.913 C 227.235 156.370,227.800 155.378,228.037 154.707 C 228.273 154.037,228.649 153.272,228.871 153.007 C 229.093 152.743,229.377 152.165,229.502 151.724 C 229.628 151.283,230.381 149.551,231.178 147.875 C 232.929 144.187,234.488 140.797,236.341 136.648 C 236.938 135.312,237.846 133.337,240.321 127.987 C 240.852 126.840,241.545 125.325,241.861 124.619 C 242.177 123.913,242.902 122.326,243.472 121.091 C 244.043 119.856,244.807 118.196,245.171 117.402 C 247.930 111.386,253.109 106.865,261.032 103.556 C 263.632 102.470,264.312 102.528,264.318 103.839 C 264.321 104.330,264.357 132.054,264.399 165.449 C 264.466 219.015,264.531 226.202,264.956 226.470 C 265.779 226.990,282.768 226.872,283.207 226.343 C 283.732 225.710,283.730 83.189,283.205 82.556 C 282.782 82.046,270.099 81.983,266.727 82.475 M137.040 111.486 L 136.327 111.985 136.326 144.926 C 136.325 180.318,136.308 180.729,134.663 185.573 C 133.296 189.601,130.988 193.362,127.512 197.227 C 126.180 198.708,121.600 202.406,121.098 202.406 C 120.872 202.406,120.517 202.611,120.309 202.863 C 119.895 203.361,116.058 205.293,115.481 205.293 C 115.285 205.293,114.674 205.526,114.124 205.810 C 112.518 206.641,106.545 207.859,104.080 207.859 C 100.869 207.859,101.043 207.332,101.043 217.086 C 101.043 227.370,100.836 226.792,104.502 226.761 C 112.449 226.694,125.501 222.670,130.485 218.750 C 130.923 218.405,131.420 218.123,131.588 218.123 C 131.757 218.123,132.279 217.828,132.748 217.466 C 133.217 217.104,134.539 216.086,135.686 215.203 C 139.644 212.155,145.520 205.866,147.394 202.673 C 147.570 202.372,148.210 201.287,148.815 200.261 C 150.373 197.622,151.345 195.687,151.765 194.387 C 151.965 193.769,152.241 193.119,152.378 192.943 C 152.515 192.767,152.870 191.756,153.167 190.698 C 153.464 189.639,153.910 188.057,154.158 187.182 C 155.329 183.054,155.386 181.306,155.483 146.184 L 155.579 111.614 154.753 111.300 C 153.273 110.737,137.878 110.899,137.040 111.486 " stroke="none" fill="#111" fill-rule="evenodd"></path></svg>